<svg width="30" height="30" viewBox="0 0 30 30" fill="none" xmlns="http://www.w3.org/2000/svg">
<path d="M21.375 18.75C22.4105 18.75 23.25 17.9105 23.25 16.875C23.25 15.8395 22.4105 15 21.375 15C20.3395 15 19.5 15.8395 19.5 16.875C19.5 17.9105 20.3395 18.75 21.375 18.75Z" stroke="white" stroke-width="2"/>
<path d="M14.25 8.25C15.0784 8.25 15.75 7.57843 15.75 6.75C15.75 5.92157 15.0784 5.25 14.25 5.25C13.4216 5.25 12.75 5.92157 12.75 6.75C12.75 7.57843 13.4216 8.25 14.25 8.25Z" stroke="white" stroke-width="2"/>
<path d="M27 15.75L21.375 11.25L15.75 15.75V27H27V15.75Z" stroke="white" stroke-width="2"/>
<path d="M8.60197 9.39397L9.13252 9.92407L9.47767 9.5787L9.3015 9.1233L8.60197 9.39397ZM11.6048 12.3975L11.8756 11.6981L11.4203 11.5218L11.0748 11.8669L11.6048 12.3975ZM3 15L2.46948 14.4698L2.25 14.6895V15H3ZM3 18H2.25V18.75H3V18ZM6 18V18.75H6.31066L6.53033 18.5303L6 18ZM7.5 16.5L8.03032 17.0303L8.25 16.8106V16.5H7.5ZM7.5 14.25V13.5H6.75V14.25H7.5ZM9.75 14.25V15H10.0603L10.28 14.7807L9.75 14.25ZM18 7.5C18 9.98527 15.9853 12 13.5 12V13.5C16.8137 13.5 19.5 10.8137 19.5 7.5H18ZM9 7.5C9 5.01472 11.0147 3 13.5 3V1.5C10.1863 1.5 7.5 4.18629 7.5 7.5H9ZM13.5 3C15.9853 3 18 5.01472 18 7.5H19.5C19.5 4.18629 16.8137 1.5 13.5 1.5V3ZM9.3015 9.1233C9.10702 8.62072 9 8.07375 9 7.5H7.5C7.5 8.26177 7.64235 8.99212 7.90252 9.66457L9.3015 9.1233ZM13.5 12C12.9259 12 12.3785 11.8928 11.8756 11.6981L11.334 13.0969C12.0069 13.3575 12.7377 13.5 13.5 13.5V12ZM2.25 15V18H3.75V15H2.25ZM3 18.75H6V17.25H3V18.75ZM6.53033 18.5303L8.03032 17.0303L6.96967 15.9697L5.46967 17.4697L6.53033 18.5303ZM8.25 16.5V14.25H6.75V16.5H8.25ZM7.5 15H9.75V13.5H7.5V15ZM8.0715 8.8638L2.46948 14.4698L3.53052 15.5302L9.13252 9.92407L8.0715 8.8638ZM11.0748 11.8669L9.21997 13.7193L10.28 14.7807L12.1348 12.9282L11.0748 11.8669Z" fill="white"/>
<path d="M17.625 6C16.9248 6 16.2561 6.12759 15.6398 6.36013L15.1103 4.9567C15.8933 4.66129 16.7412 4.5 17.625 4.5C21.5601 4.5 24.75 7.68998 24.75 11.625C24.75 12.3564 24.6398 13.0621 24.4351 13.7264L23.1486 12.694C23.2152 12.3479 23.25 11.9905 23.25 11.625C23.25 8.51843 20.7317 6 17.625 6Z" fill="white"/>
<path d="M19.8334 17.8774L20.0785 18.3165C19.3136 18.597 18.4874 18.7501 17.6253 18.7501C15.0747 18.7501 12.8378 17.4093 11.5801 15.3977L12.6832 14.3135C12.8374 14.5963 13.0152 14.8645 13.2139 15.1153C14.2451 16.4168 15.8381 17.2501 17.6253 17.2501C18.3012 17.2501 18.9492 17.1309 19.5495 16.9124L19.8334 17.8774Z" fill="white"/>
</svg>
