<svg width="30" height="30" viewBox="0 0 30 30" fill="none" xmlns="http://www.w3.org/2000/svg">
<path fill-rule="evenodd" clip-rule="evenodd" d="M13.75 7.5C11.6789 7.5 10 9.17894 10 11.25V21.25C10 21.9404 10.5597 22.5 11.25 22.5C11.9404 22.5 12.5 21.9404 12.5 21.25V17.5H15.0056C15.2686 17.4984 15.5325 17.4675 15.7915 17.4244C16.2249 17.3521 16.8219 17.2052 17.434 16.8993C18.0511 16.5906 18.7061 16.1082 19.2041 15.3612C19.7074 14.6064 20 13.6561 20 12.4999C20 11.3437 19.7074 10.3935 19.2041 9.63865C18.7061 8.89165 18.051 8.40925 17.434 8.10072C16.8219 7.79466 16.2249 7.64785 15.7915 7.57561C15.531 7.53219 15.2646 7.50012 15 7.5H13.75ZM12.5 15V11.25C12.5 10.5596 13.0596 10 13.75 10L15.0005 10.0002C15.4504 10.0152 15.9148 10.1362 16.316 10.3368C16.6365 10.497 16.9189 10.7177 17.124 11.0254C17.3239 11.3253 17.5 11.7812 17.5 12.4999C17.5 13.2188 17.3239 13.6746 17.124 13.9745C16.9189 14.2822 16.6364 14.5029 16.316 14.6631C15.9148 14.8638 15.4504 14.9847 15.0004 14.9997L12.5 15Z" fill="white"/>
<path fill-rule="evenodd" clip-rule="evenodd" d="M25 1.25C27.0711 1.25 28.75 2.92894 28.75 5V25C28.75 27.0711 27.0711 28.75 25 28.75H5C2.92894 28.75 1.25 27.0711 1.25 25V5C1.25 2.92894 2.92894 1.25 5 1.25H25ZM25 3.75C25.6904 3.75 26.25 4.30965 26.25 5V25C26.25 25.6904 25.6904 26.25 25 26.25H5C4.30965 26.25 3.75 25.6904 3.75 25V5C3.75 4.30965 4.30965 3.75 5 3.75H25Z" fill="white"/>
</svg>
