<svg width="30" height="30" viewBox="0 0 30 30" fill="none" xmlns="http://www.w3.org/2000/svg">
<path fill-rule="evenodd" clip-rule="evenodd" d="M14.2867 6.14408L12.507 11.6416H6.75L6.3075 12.9968L10.968 16.3943L9.1875 21.8941L10.3425 22.7311L15 19.3351L19.6575 22.7311L20.8125 21.8941L19.032 16.3951L23.6917 12.9976L23.25 11.6401H17.493L15.7132 6.14258H14.2875L14.2867 6.14408ZM13.7662 12.6218L15 8.81033L16.2337 12.6218C16.2826 12.7727 16.378 12.9042 16.5063 12.9975C16.6346 13.0907 16.7891 13.1409 16.9477 13.1408H20.9482L17.709 15.5033C17.5813 15.5965 17.4864 15.7275 17.4376 15.8778C17.3888 16.0281 17.3888 16.19 17.4375 16.3403L18.6735 20.1578L15.4417 17.8013C15.3134 17.7078 15.1588 17.6574 15 17.6574C14.8412 17.6574 14.6866 17.7078 14.5582 17.8013L11.3265 20.1578L12.5625 16.3403C12.6112 16.19 12.6111 16.0281 12.5624 15.8778C12.5136 15.7275 12.4187 15.5965 12.291 15.5033L9.051 13.1408H13.0522C13.2108 13.1409 13.3654 13.0907 13.4937 12.9975C13.622 12.9042 13.7174 12.7727 13.7662 12.6218Z" fill="white"/>
<path fill-rule="evenodd" clip-rule="evenodd" d="M27.75 15C27.75 22.0417 22.0417 27.75 15 27.75C7.95825 27.75 2.25 22.0417 2.25 15C2.25 7.95825 7.95825 2.25 15 2.25C22.0417 2.25 27.75 7.95825 27.75 15ZM26.25 15C26.25 21.213 21.213 26.25 15 26.25C8.787 26.25 3.75 21.213 3.75 15C3.75 8.787 8.787 3.75 15 3.75C21.213 3.75 26.25 8.787 26.25 15Z" fill="white"/>
</svg>
