<svg width="31" height="30" viewBox="0 0 31 30" fill="none" xmlns="http://www.w3.org/2000/svg">
<path fill-rule="evenodd" clip-rule="evenodd" d="M3.24882 2.77229C3.06949 2.73769 2.8848 2.74343 2.70794 2.78911C2.53107 2.83479 2.3664 2.91928 2.22567 3.03654C2.08495 3.1538 1.97165 3.30094 1.89386 3.46745C1.81608 3.63397 1.77573 3.81574 1.7757 3.99979V27.1198H17.4468V6.56229C17.4469 6.27194 17.3467 5.99062 17.1634 5.76663C16.9801 5.54264 16.7252 5.38996 16.4424 5.33479L3.24882 2.77229ZM10.9641 8.89979H13.9847V11.9448H10.9629V8.90104L10.9641 8.89979ZM5.2415 8.89979H8.26214V11.9448H5.24026V8.90104L5.2415 8.89979ZM5.2415 14.8573H8.26214V17.9023H5.23902V14.8573H5.2415ZM8.26214 20.8135H5.23902V23.8598H8.2609L8.26214 20.8135ZM13.9847 14.8573H10.9629V17.9023H13.9835L13.9847 14.8573ZM10.9641 20.8135H13.9847V23.8598H10.9629V20.8135H10.9641ZM19.3105 9.46479L27.9459 12.2335C28.1967 12.3139 28.4157 12.4727 28.5711 12.6869C28.7264 12.901 28.8102 13.1595 28.8102 13.4248V27.1185H19.3118V9.46479H19.3105ZM22.1377 14.8585H25.1571V17.9035H22.1365V14.8585H22.1377ZM25.1571 20.8123H22.1365V23.8585H25.1571V20.8123Z" fill="white"/>
</svg>
