<svg width="30" height="30" viewBox="0 0 30 30" fill="none" xmlns="http://www.w3.org/2000/svg">
<path d="M11.25 24C11.4489 24 11.6397 23.921 11.7803 23.7803C11.921 23.6397 12 23.4489 12 23.25C12 23.0511 11.921 22.8603 11.7803 22.7197C11.6397 22.579 11.4489 22.5 11.25 22.5C11.0511 22.5 10.8603 22.579 10.7197 22.7197C10.579 22.8603 10.5 23.0511 10.5 23.25C10.5 23.4489 10.579 23.6397 10.7197 23.7803C10.8603 23.921 11.0511 24 11.25 24ZM18 23.25C18 23.4489 17.921 23.6397 17.7803 23.7803C17.6397 23.921 17.4489 24 17.25 24C17.0511 24 16.8603 23.921 16.7197 23.7803C16.579 23.6397 16.5 23.4489 16.5 23.25C16.5 23.0511 16.579 22.8603 16.7197 22.7197C16.8603 22.579 17.0511 22.5 17.25 22.5C17.4489 22.5 17.6397 22.579 17.7803 22.7197C17.921 22.8603 18 23.0511 18 23.25ZM23.25 24C23.4489 24 23.6397 23.921 23.7803 23.7803C23.921 23.6397 24 23.4489 24 23.25C24 23.0511 23.921 22.8603 23.7803 22.7197C23.6397 22.579 23.4489 22.5 23.25 22.5C23.0511 22.5 22.8603 22.579 22.7197 22.7197C22.579 22.8603 22.5 23.0511 22.5 23.25C22.5 23.4489 22.579 23.6397 22.7197 23.7803C22.8603 23.921 23.0511 24 23.25 24ZM15 20.25C15 20.4489 14.921 20.6397 14.7803 20.7803C14.6397 20.921 14.4489 21 14.25 21C14.0511 21 13.8603 20.921 13.7197 20.7803C13.579 20.6397 13.5 20.4489 13.5 20.25C13.5 20.0511 13.579 19.8603 13.7197 19.7197C13.8603 19.579 14.0511 19.5 14.25 19.5C14.4489 19.5 14.6397 19.579 14.7803 19.7197C14.921 19.8603 15 20.0511 15 20.25ZM20.25 21C20.4489 21 20.6397 20.921 20.7803 20.7803C20.921 20.6397 21 20.4489 21 20.25C21 20.0511 20.921 19.8603 20.7803 19.7197C20.6397 19.579 20.4489 19.5 20.25 19.5C20.0511 19.5 19.8603 19.579 19.7197 19.7197C19.579 19.8603 19.5 20.0511 19.5 20.25C19.5 20.4489 19.579 20.6397 19.7197 20.7803C19.8603 20.921 20.0511 21 20.25 21ZM18 17.25C18 17.4489 17.921 17.6397 17.7803 17.7803C17.6397 17.921 17.4489 18 17.25 18C17.0511 18 16.8603 17.921 16.7197 17.7803C16.579 17.6397 16.5 17.4489 16.5 17.25C16.5 17.0511 16.579 16.8603 16.7197 16.7197C16.8603 16.579 17.0511 16.5 17.25 16.5C17.4489 16.5 17.6397 16.579 17.7803 16.7197C17.921 16.8603 18 17.0511 18 17.25ZM23.25 18C23.4489 18 23.6397 17.921 23.7803 17.7803C23.921 17.6397 24 17.4489 24 17.25C24 17.0511 23.921 16.8603 23.7803 16.7197C23.6397 16.579 23.4489 16.5 23.25 16.5C23.0511 16.5 22.8603 16.579 22.7197 16.7197C22.579 16.8603 22.5 17.0511 22.5 17.25C22.5 17.4489 22.579 17.6397 22.7197 17.7803C22.8603 17.921 23.0511 18 23.25 18ZM21 14.25C21 14.4489 20.921 14.6397 20.7803 14.7803C20.6397 14.921 20.4489 15 20.25 15C20.0511 15 19.8603 14.921 19.7197 14.7803C19.579 14.6397 19.5 14.4489 19.5 14.25C19.5 14.0511 19.579 13.8603 19.7197 13.7197C19.8603 13.579 20.0511 13.5 20.25 13.5C20.4489 13.5 20.6397 13.579 20.7803 13.7197C20.921 13.8603 21 14.0511 21 14.25ZM23.25 12C23.4489 12 23.6397 11.921 23.7803 11.7803C23.921 11.6397 24 11.4489 24 11.25C24 11.0511 23.921 10.8603 23.7803 10.7197C23.6397 10.579 23.4489 10.5 23.25 10.5C23.0511 10.5 22.8603 10.579 22.7197 10.7197C22.579 10.8603 22.5 11.0511 22.5 11.25C22.5 11.4489 22.579 11.6397 22.7197 11.7803C22.8603 11.921 23.0511 12 23.25 12Z" fill="white"/>
<path fill-rule="evenodd" clip-rule="evenodd" d="M3 3H27V27H3V3ZM4.5 24.4395V19.5H9.4395L4.5 24.4395ZM25.5 25.5H5.5605L25.5 5.5605V25.5ZM13.5 4.5H24.4395L18.4395 10.5H13.5V4.5ZM4.5 4.5H12V10.5H4.5V4.5ZM4.5 18V12H7.5V18H4.5ZM10.9395 18L16.9395 12H9V18H10.9395Z" fill="white"/>
</svg>
