<svg width="30" height="30" viewBox="0 0 30 30" fill="none" xmlns="http://www.w3.org/2000/svg">
<g clip-path="url(#clip0_2005_474)">
<mask id="mask0_2005_474" style="mask-type:luminance" maskUnits="userSpaceOnUse" x="0" y="0" width="30" height="30">
<path d="M0 0H30V30H0V0Z" fill="white"/>
</mask>
<g mask="url(#mask0_2005_474)">
<path fill-rule="evenodd" clip-rule="evenodd" d="M4.6275 2.75391C4.13022 2.75391 3.6533 2.95145 3.30167 3.30308C2.95004 3.65471 2.7525 4.13163 2.7525 4.62891V25.3752C2.7525 25.8724 2.95004 26.3494 3.30167 26.701C3.6533 27.0526 4.13022 27.2502 4.6275 27.2502H25.375C25.8723 27.2502 26.3492 27.0526 26.7008 26.701C27.0525 26.3494 27.25 25.8724 27.25 25.3752V4.62891C27.25 4.13163 27.0525 3.65471 26.7008 3.30308C26.3492 2.95145 25.8723 2.75391 25.375 2.75391H4.6275ZM23.7125 14.3764V12.9389H21.565C22.19 12.3989 22.6725 11.8739 23.0112 11.3639C23.3575 10.8539 23.53 10.3177 23.53 9.75266C23.53 9.12766 23.3237 8.63016 22.9112 8.26016C22.4987 7.88391 21.9525 7.69516 21.2737 7.69516C20.8175 7.69516 20.39 7.77766 19.99 7.94141C19.6262 8.07909 19.2945 8.28965 19.015 8.56016L19.5075 10.0527C20.0112 9.52516 20.5112 9.26141 21.0087 9.26141C21.2337 9.26141 21.4087 9.31891 21.5375 9.43391C21.6014 9.49276 21.6516 9.56488 21.6847 9.64521C21.7177 9.72554 21.7327 9.81214 21.7287 9.89891C21.7287 10.6027 20.8237 11.6639 19.0162 13.0839V14.3764H23.7125ZM6.56875 12.9102V20.2539H8.8875V15.3152C9.3375 14.8927 9.775 14.6814 10.1975 14.6814C10.4087 14.6814 10.5675 14.7439 10.6725 14.8689C10.7787 14.9839 10.8312 15.1939 10.8312 15.5027V20.2539H13.15V15.3002C13.61 14.8877 14.0475 14.6814 14.46 14.6814C14.8825 14.6814 15.0937 14.9552 15.0937 15.5027V20.2539H17.4112V14.7827C17.4112 13.4202 16.7875 12.7377 15.54 12.7377C14.6275 12.7377 13.7875 13.0977 13.02 13.8177C12.78 13.0977 12.1987 12.7377 11.2775 12.7377C10.385 12.7377 9.5875 13.0877 8.8875 13.7877V12.9102H6.56875Z" fill="white"/>
</g>
</g>
<defs>
<clipPath id="clip0_2005_474">
<rect width="30" height="30" fill="white"/>
</clipPath>
</defs>
</svg>
