<svg width="30" height="30" viewBox="0 0 30 30" fill="none" xmlns="http://www.w3.org/2000/svg">
<g clip-path="url(#clip0_2005_481)">
<mask id="mask0_2005_481" style="mask-type:luminance" maskUnits="userSpaceOnUse" x="0" y="0" width="30" height="30">
<path d="M0 0H30V30H0V0Z" fill="white"/>
</mask>
<g mask="url(#mask0_2005_481)">
<path fill-rule="evenodd" clip-rule="evenodd" d="M3.79999 4.31738C3.79999 3.8201 3.99753 3.34319 4.34916 2.99156C4.70079 2.63993 5.17771 2.44238 5.67499 2.44238H18.4975C18.9948 2.44238 19.4717 2.63993 19.8233 2.99156C20.1749 3.34319 20.3725 3.8201 20.3725 4.31738V5.39238H23.1912C23.989 5.39238 24.7541 5.7092 25.3183 6.27318C25.8825 6.83716 26.1997 7.60213 26.2 8.39988V12.9036C26.2 13.2987 26.1222 13.69 25.971 14.055C25.8198 14.4201 25.5981 14.7518 25.3187 15.0311C25.0394 15.3105 24.7077 15.5322 24.3426 15.6834C23.9776 15.8346 23.5864 15.9124 23.1912 15.9124H14.0125C13.8984 15.9124 13.7891 15.9577 13.7084 16.0383C13.6278 16.119 13.5825 16.2283 13.5825 16.3424V18.5361C14.0167 18.6128 14.4099 18.8401 14.6931 19.178C14.9764 19.5159 15.1315 19.9427 15.1312 20.3836V25.6811C15.1312 26.1784 14.9337 26.6553 14.5821 27.007C14.2304 27.3586 13.7535 27.5561 13.2562 27.5561H10.9187C10.4215 27.5561 9.94454 27.3586 9.59291 27.007C9.24128 26.6553 9.04374 26.1784 9.04374 25.6811V20.3836C9.04374 19.8864 9.24128 19.4094 9.59291 19.0578C9.94454 18.7062 10.4215 18.5086 10.9187 18.5086H11.0037V16.3424C11.0037 15.5444 11.3207 14.7791 11.885 14.2149C12.4492 13.6506 13.2145 13.3336 14.0125 13.3336H23.1925C23.43 13.3336 23.6225 13.1411 23.6225 12.9036V8.39988C23.6222 8.28606 23.5767 8.177 23.4961 8.09663C23.4155 8.01626 23.3063 7.97113 23.1925 7.97113H20.3737V8.59988C20.3737 9.09716 20.1762 9.57408 19.8246 9.92571C19.4729 10.2773 18.996 10.4749 18.4987 10.4749H5.67499C5.17771 10.4749 4.70079 10.2773 4.34916 9.92571C3.99753 9.57408 3.79999 9.09716 3.79999 8.59988V4.31738Z" fill="white"/>
</g>
</g>
<defs>
<clipPath id="clip0_2005_481">
<rect width="30" height="30" fill="white"/>
</clipPath>
</defs>
</svg>
